<svg width="425" height="425" viewBox="0 0 425 425" fill="none" xmlns="http://www.w3.org/2000/svg">

<path d="M59.9532 305.084C59.4011 304.289 58.6545 303.648 57.7845 303.223C57.4805 303.056 57.1605 302.921 56.8293 302.818C57.1024 302.699 57.3628 302.553 57.6062 302.381C58.2933 301.901 58.8407 301.248 59.1925 300.487C59.557 299.685 59.7394 298.811 59.7267 297.93C59.7267 296.069 59.1601 294.693 58.0433 293.851C56.9265 293.025 55.3565 292.604 53.3494 292.604H49.6103C49.8529 293.139 50.1284 293.673 50.4034 294.207H53.3976C54.6004 294.141 55.7923 294.465 56.7969 295.13C57.6224 295.745 58.0433 296.781 58.0433 298.205C58.0706 299.245 57.739 300.262 57.1044 301.086C56.5976 301.667 55.8948 302.042 55.1297 302.138C54.98 302.169 54.8287 302.191 54.6764 302.203C54.4986 302.219 54.3042 302.235 54.1101 302.235H53.6893C53.9967 302.786 54.3042 303.32 54.644 303.854C54.7855 303.868 54.9261 303.889 55.0653 303.919C55.2851 303.938 55.5021 303.982 55.7126 304.048C55.9159 304.087 56.116 304.141 56.3112 304.21C56.3436 304.226 56.3761 304.226 56.4085 304.243C57.1492 304.505 57.8117 304.95 58.3345 305.537C58.8598 306.203 59.1246 307.038 59.0794 307.885C59.0861 308.141 59.0589 308.396 58.9984 308.645C58.9803 308.849 58.9367 309.051 58.8688 309.244C59.1924 309.794 59.5323 310.345 59.8721 310.879C59.974 310.737 60.0609 310.585 60.1314 310.426C60.1643 310.386 60.1915 310.343 60.2124 310.296C60.5965 309.534 60.7855 308.689 60.7625 307.836C60.7825 306.857 60.4999 305.896 59.9532 305.084ZM59.9532 305.084C59.4011 304.289 58.6545 303.648 57.7845 303.223C57.4805 303.056 57.1605 302.921 56.8293 302.818C57.1024 302.699 57.3628 302.553 57.6062 302.381C58.2933 301.901 58.8407 301.248 59.1925 300.487C59.557 299.685 59.7394 298.811 59.7267 297.93C59.7267 296.069 59.1601 294.693 58.0433 293.851C56.9265 293.025 55.3565 292.604 53.3494 292.604H48.6714V313.42H54.1588C54.9896 313.421 55.8169 313.312 56.6191 313.096C57.3709 312.872 58.0814 312.528 58.723 312.077C58.723 312.074 58.7234 312.072 58.7242 312.07C58.725 312.068 58.7261 312.066 58.7276 312.065C58.7292 312.063 58.731 312.062 58.733 312.061C58.7349 312.061 58.7371 312.06 58.7392 312.06C58.9174 311.915 59.0953 311.769 59.2573 311.607C59.3099 311.557 59.3586 311.503 59.4031 311.445C59.4652 311.394 59.5196 311.334 59.5647 311.267C59.6781 311.138 59.7754 311.008 59.8722 310.879C59.974 310.737 60.0609 310.585 60.1314 310.426C60.1643 310.386 60.1915 310.343 60.2124 310.296C60.5965 309.534 60.7855 308.689 60.7625 307.836C60.7825 306.857 60.4999 305.896 59.9532 305.084ZM50.3224 294.207H53.3976C54.6004 294.141 55.7923 294.465 56.7969 295.13C57.6224 295.745 58.0433 296.781 58.0433 298.205C58.0706 299.245 57.739 300.262 57.1043 301.086C56.5976 301.667 55.8947 302.042 55.1297 302.138C54.98 302.169 54.8287 302.191 54.6764 302.203C54.4986 302.219 54.3041 302.235 54.1101 302.235H50.3224L50.3224 294.207ZM58.8688 309.244C58.8023 309.436 58.7155 309.621 58.61 309.794C58.571 309.876 58.522 309.952 58.4642 310.021C58.448 310.053 58.4318 310.069 58.4156 310.102C58.3981 310.132 58.3762 310.159 58.3507 310.183C58.1978 310.384 58.0182 310.564 57.8169 310.717C57.4589 311.03 57.0478 311.277 56.6029 311.445C55.8015 311.749 54.951 311.903 54.0939 311.899H50.3224V303.821H54.0129C54.1863 303.816 54.3598 303.826 54.531 303.854C54.5683 303.846 54.6068 303.846 54.644 303.854C54.7855 303.868 54.9262 303.889 55.0653 303.919C55.2851 303.938 55.5021 303.982 55.7126 304.048C55.9159 304.087 56.1161 304.141 56.3113 304.21C56.3437 304.226 56.3761 304.226 56.4085 304.243C57.1493 304.505 57.8118 304.95 58.3345 305.537C58.8598 306.203 59.1246 307.038 59.0794 307.885C59.0861 308.141 59.0589 308.396 58.9984 308.645C58.9803 308.849 58.9367 309.051 58.8688 309.244Z" fill="white"/>
<path d="M76.1402 303.74H86.291V302.145H76.1402V294.2H87.421V292.604H74.4863V313.427H87.8276V311.832H76.1402V303.74Z" fill="white"/>
<path d="M108.966 291.781L108.933 291.7H108.658L99.9338 313.26L99.8694 313.422H101.537L104.272 306.607H113.191L115.845 313.357L115.877 313.422H117.723L108.966 291.781ZM104.887 305.054L108.772 295.358L112.575 305.054H104.887Z" fill="white"/>
<path d="M143.281 306.354C143.307 307.413 143.058 308.462 142.557 309.396C142.093 310.227 141.405 310.911 140.571 311.371C139.682 311.842 138.688 312.082 137.682 312.066C136.69 312.081 135.711 311.841 134.838 311.371C134.01 310.909 133.327 310.226 132.865 309.397C132.364 308.463 132.115 307.414 132.141 306.354V292.604H130.487V306.441C130.452 307.797 130.779 309.137 131.433 310.325C132.037 311.384 132.935 312.245 134.018 312.804C135.157 313.369 136.41 313.663 137.681 313.663C138.952 313.663 140.206 313.369 141.345 312.804C142.429 312.242 143.331 311.383 143.945 310.327C144.608 309.141 144.939 307.799 144.904 306.441V292.604H143.281V306.354Z" fill="white"/>
<path d="M158.155 294.2H164.158V313.427H165.812V294.2H171.872V292.604H158.155V294.2Z" fill="white"/>
<path d="M191.705 304.136L185.111 292.662L185.077 292.604H183.071L190.841 306.009V313.427H192.495V306.009L200.268 292.604H198.284L191.705 304.136Z" fill="white"/>
<path d="M240.687 303.563L240.685 303.562C240.122 303.106 239.504 302.721 238.846 302.417C238.199 302.115 237.518 301.83 236.825 301.574C235.98 301.248 235.172 300.903 234.427 300.545C233.75 300.243 233.141 299.809 232.634 299.268C232.182 298.761 231.944 298.099 231.969 297.42C231.963 296.947 232.066 296.478 232.269 296.051C232.473 295.623 232.773 295.248 233.144 294.955C234.052 294.26 235.177 293.909 236.32 293.966C237.191 293.969 238.059 294.095 238.895 294.339C239.646 294.547 240.378 294.816 241.083 295.145L241.187 295.196L241.839 293.887L241.738 293.834C240.906 293.411 240.027 293.087 239.118 292.871C238.146 292.622 237.147 292.494 236.143 292.49C235.109 292.489 234.088 292.715 233.151 293.152C232.31 293.544 231.589 294.153 231.061 294.915C230.539 295.697 230.269 296.621 230.288 297.561C230.266 298.288 230.436 299.009 230.78 299.65C231.11 300.23 231.561 300.731 232.103 301.121C232.668 301.534 233.279 301.879 233.924 302.15C234.571 302.428 235.236 302.699 235.904 302.955C236.723 303.249 237.522 303.595 238.297 303.99C239.001 304.343 239.621 304.843 240.115 305.456C240.608 306.125 240.855 306.943 240.815 307.773C240.85 308.655 240.588 309.524 240.071 310.24C239.576 310.883 238.922 311.386 238.174 311.699C236.742 312.276 235.155 312.337 233.683 311.87C232.432 311.497 231.248 310.924 230.179 310.173L230.075 310.098L229.29 311.468L229.384 311.527C229.745 311.754 230.249 312.041 230.883 312.383C231.593 312.755 232.34 313.054 233.11 313.276C234.031 313.542 234.985 313.673 235.943 313.664C237.123 313.686 238.292 313.432 239.356 312.924C240.308 312.461 241.109 311.737 241.665 310.836C242.228 309.905 242.516 308.834 242.497 307.746C242.522 306.89 242.355 306.039 242.008 305.256C241.693 304.604 241.243 304.026 240.687 303.563Z" fill="white"/>
<path d="M254.329 294.2H260.332V313.427H261.986V294.2H268.046V292.604H254.329V294.2Z" fill="white"/>
<path d="M294.092 306.354C294.118 307.414 293.869 308.463 293.368 309.397C292.904 310.228 292.217 310.911 291.384 311.371C290.495 311.842 289.501 312.082 288.495 312.066C287.503 312.081 286.524 311.841 285.65 311.371C284.822 310.909 284.139 310.226 283.678 309.397C283.177 308.463 282.927 307.414 282.954 306.354V292.604H281.3V306.441C281.265 307.797 281.591 309.137 282.246 310.325C282.85 311.384 283.747 312.245 284.831 312.804C285.969 313.369 287.223 313.663 288.494 313.663C289.765 313.663 291.019 313.369 292.157 312.804C293.242 312.242 294.144 311.383 294.757 310.327C295.42 309.141 295.751 307.799 295.716 306.441V292.604H294.092V306.354Z" fill="white"/>
<path d="M326.332 299.469C326.076 298.707 325.728 297.978 325.296 297.3C325.115 296.993 324.909 296.7 324.681 296.426C324.598 296.301 324.506 296.182 324.406 296.07C323.46 294.985 322.281 294.127 320.958 293.561C319.327 292.889 317.574 292.563 315.811 292.606H310.615V313.422H316.798C318.111 313.434 319.414 313.192 320.634 312.71C321.844 312.24 322.95 311.536 323.888 310.638C324.848 309.725 325.609 308.623 326.122 307.4C326.688 306.048 326.969 304.593 326.947 303.127C326.936 301.883 326.728 300.648 326.332 299.469ZM324.584 306.72C324.149 307.758 323.505 308.694 322.691 309.471C321.878 310.248 320.913 310.849 319.857 311.236C318.885 311.59 317.864 311.787 316.83 311.819C316.696 311.833 316.561 311.838 316.426 311.836H312.282V294.225H316.021C317.393 294.2 318.756 294.442 320.035 294.937C321.117 295.384 322.097 296.045 322.917 296.879C323.265 297.239 323.574 297.635 323.839 298.061C324.048 298.364 324.232 298.684 324.389 299.016C324.503 299.241 324.601 299.473 324.681 299.712C325.073 300.78 325.27 301.909 325.264 303.046C325.286 304.304 325.055 305.554 324.584 306.72Z" fill="white"/>
<path d="M342.321 292.604H340.669V313.428H342.321V292.604Z" fill="white"/>
<path d="M376.493 298.92C376.221 298.275 375.879 297.661 375.474 297.091C375.287 296.802 375.082 296.526 374.859 296.265C374.648 296.006 374.422 295.763 374.195 295.521C373.216 294.544 372.063 293.759 370.796 293.206C369.486 292.648 368.076 292.362 366.652 292.364C365.239 292.359 363.839 292.645 362.541 293.206C359.982 294.308 357.947 296.354 356.86 298.92C356.306 300.225 356.025 301.629 356.034 303.047C356.02 304.497 356.301 305.934 356.86 307.272C357.386 308.536 358.162 309.682 359.142 310.639C360.121 311.594 361.275 312.352 362.541 312.872C363.243 313.148 363.969 313.36 364.71 313.504C365.05 313.552 365.389 313.6 365.73 313.617C366.036 313.649 366.344 313.665 366.652 313.665C368.075 313.673 369.485 313.392 370.796 312.84C372.063 312.3 373.216 311.526 374.195 310.558C375.166 309.578 375.946 308.425 376.493 307.158C377.054 305.861 377.341 304.461 377.335 303.047C377.339 301.628 377.053 300.224 376.493 298.92ZM374.94 306.56C374.484 307.633 373.831 308.61 373.013 309.441C372.186 310.254 371.214 310.907 370.149 311.367C369.079 311.822 367.928 312.059 366.765 312.063H366.62C366.312 312.063 366.004 312.047 365.697 312.014C364.827 311.929 363.976 311.711 363.172 311.367C362.114 310.903 361.148 310.25 360.323 309.441C359.509 308.611 358.861 307.633 358.413 306.56C357.95 305.458 357.714 304.274 357.718 303.079C357.716 300.696 358.638 298.404 360.291 296.686C361.104 295.846 362.071 295.17 363.14 294.695C364.245 294.203 365.443 293.954 366.652 293.967C367.854 293.964 369.044 294.206 370.149 294.679C371.219 295.152 372.191 295.822 373.013 296.654C373.387 297.03 373.723 297.442 374.017 297.884C374.221 298.176 374.41 298.479 374.584 298.79C374.713 299.033 374.826 299.276 374.94 299.535C375.407 300.646 375.644 301.841 375.635 303.047C375.651 304.254 375.414 305.45 374.94 306.56Z" fill="white"/>
<path d="M263.743 195.24C262.006 195.24 260.73 194.723 259.952 193.702C259.162 192.682 258.743 191.424 258.764 190.135C258.764 188.792 260.059 186.574 262.618 183.536C265.164 180.504 267.216 178.966 268.716 178.966C269.376 178.935 270.035 179.046 270.648 179.29C271.262 179.535 271.816 179.908 272.274 180.384C273.137 181.336 273.575 182.704 273.575 184.437C273.575 186.183 272.362 188.439 269.97 191.149C267.572 193.866 265.479 195.24 263.743 195.24Z" fill="white"/>
<path d="M161.815 224.308C162.574 223.29 163.214 222.187 163.721 221.023C164.013 220.249 164.3 219.472 164.581 218.693C154.582 227.374 143.229 234.359 130.971 239.369C110.139 247.912 90.5678 252.019 72.8057 251.574L69.6486 251.496C53.4414 250.894 41.699 245.771 34.751 236.278C30.7796 230.901 28.8602 224.563 29.0384 217.447C29.2148 210.41 30.7669 202.707 33.6531 194.559C40.6577 174.103 52.7646 154.424 69.6314 136.065C86.491 117.706 103.033 103.951 118.796 95.1942C134.627 86.3951 147.64 82.0586 157.466 82.3047C169.221 82.5992 175.039 88.4199 174.759 99.604C174.617 105.268 172.798 110.76 169.391 115.887C162.232 128.87 151.664 139.652 138.825 147.067C125.794 154.7 111.139 159.134 96.0619 160.006C91.924 160.249 89.7961 161.808 89.5549 164.795C89.5039 165.058 89.5099 165.33 89.5726 165.591C89.6352 165.852 89.7531 166.096 89.9182 166.308C90.3995 166.855 91.4183 167.162 92.8704 167.198C93.3115 167.21 93.7887 167.193 94.3031 167.155C104.098 166.461 115.882 162.982 129.331 156.813C143.042 150.464 155.608 141.89 166.519 131.438C177.635 120.858 183.4 110.325 183.656 100.116C183.833 94.9593 182.099 89.9189 178.787 85.9622C173.592 79.9401 164.543 76.7206 151.892 76.4034C141.568 76.1447 130.551 78.16 119.153 82.3857C89.5857 93.7466 63.7546 115.141 42.3817 145.981C26.7163 168.613 18.5193 190.204 18.0194 210.159C17.7249 221.906 20.7821 231.612 27.099 239.014C36.8934 250.465 51.9376 256.524 71.8128 257.022C90.8677 257.499 110.981 253.124 131.592 244.011C142.334 239.194 152.373 232.942 161.433 225.424C161.502 225.034 161.631 224.658 161.815 224.308Z" fill="white"/>
<path d="M260.177 237.504C263.698 235.04 267.38 232.435 271.383 229.602C269.466 233.219 268.096 237.101 267.318 241.12C266.588 243.452 266.614 245.955 267.393 248.272C268.28 250.871 270.105 253.046 272.512 254.369C276.803 256.628 280.718 256.854 284.106 256.854H285.235C293.139 256.478 299.99 254.219 307.443 251.509C314.746 248.799 321.822 245.712 328.673 242.626C334.846 239.915 341.169 237.13 347.493 234.721C357.731 230.806 369.851 226.817 382.348 226.817C384.488 226.792 386.626 226.918 388.747 227.193C396.878 228.096 402.976 232.011 405.084 237.958C405.942 240.421 406.2 243.054 405.836 245.637C405.159 250.304 403.334 254.814 399.174 259.307C398.673 259.784 398.295 260.375 398.07 261.03C398.005 261.271 398.014 261.526 398.097 261.762C398.179 261.998 398.331 262.203 398.533 262.351C398.868 262.593 399.273 262.721 399.686 262.714C399.937 262.711 400.184 262.657 400.413 262.555C400.642 262.454 400.848 262.307 401.018 262.124C409.832 251.829 408.396 241.798 406.815 237.657C405.535 234.119 403.051 230.505 399.814 228.247C396.275 225.762 392.135 224.708 389.274 224.107C385.939 223.56 382.566 223.283 379.187 223.278C367.518 223.278 356.225 226.289 345.686 229.602C338.083 232.011 330.479 234.947 323.177 237.732C317.079 240.066 311.056 242.325 304.959 244.357C298.409 246.465 291.559 248.422 284.934 248.422C283.446 248.409 281.961 248.283 280.492 248.046C278.008 246.917 276.728 244.959 276.728 242.174C276.728 236.151 281.094 228.548 289.601 219.364C298.184 210.33 305.335 205.587 311.056 205.436C312.864 205.436 313.842 206.039 313.842 207.243C313.842 208.372 312.412 210.179 309.626 212.664C307.895 214.395 307.518 215.298 307.518 215.75C307.518 217.105 308.798 218.009 311.508 218.535C313.917 218.535 316.552 216.653 319.563 212.889C322.499 209.125 324.005 206.49 324.005 205.06C324.04 204.449 323.943 203.837 323.723 203.266C323.502 202.695 323.162 202.177 322.725 201.748C321.822 200.92 319.639 200.393 316.101 200.092C304.281 200.092 293.065 205.135 282.826 215.073C281.095 216.804 279.513 218.46 278.083 220.192C271.917 224.999 265.907 229.493 259.912 233.734" fill="white"/>
<path d="M259.913 233.734C256.614 236.068 253.311 238.33 250.005 240.518C243.079 245.11 238.938 247.368 237.207 247.368C235.4 247.368 234.572 246.164 234.572 243.83C234.572 239.765 238.336 232.99 245.713 223.655C253.091 214.32 256.855 208.598 256.855 206.49C256.855 204.458 255.5 203.479 252.865 203.479C250.456 203.479 247.144 206.265 242.853 211.76L237.658 216.051C227.42 224.257 216.203 232.538 204.158 240.518C197.307 245.11 193.092 247.368 191.36 247.368C189.629 247.368 188.725 245.938 188.725 243.228C188.725 240.593 191.887 234.646 198.211 225.687C204.459 216.804 207.621 211.309 207.621 209.276C207.621 207.318 207.169 205.888 206.191 204.985C205.291 204.15 204.105 203.692 202.878 203.705C199.491 203.705 193.318 207.168 184.359 214.019C175.476 220.869 168.324 226.892 163.205 232.011C162.857 232.263 162.426 232.371 162 232.312C161.549 232.312 161.097 232.162 161.097 231.258C161.173 230.293 161.541 229.374 162.151 228.623C162.904 227.569 169.528 217.707 182.025 198.887C194.522 180.293 201.598 169.527 203.18 166.892C204.685 164.333 210.482 155.901 220.494 141.824C230.507 127.671 236.002 119.917 236.83 118.637C237.632 117.623 238.104 116.388 238.185 115.098C238.185 113.216 236.755 112.313 233.819 112.313C230.883 112.313 228.474 113.668 226.743 116.378L142.126 245.411C140.018 248.121 138.964 250.38 138.964 252.111C138.964 253.842 139.491 254.671 140.695 254.671C141.825 254.671 144.008 253.24 147.019 250.53C155.074 242.701 164.56 234.044 175.25 224.708C186.166 215.298 192.489 210.782 194.597 210.782C195.124 210.782 195.727 210.932 195.727 211.986C195.727 212.739 192.715 218.009 186.467 228.172C180.369 238.109 177.283 245.261 177.283 249.401C177.283 253.24 179.616 255.123 184.359 255.123C189.027 255.123 197.609 250.38 209.879 241.12C218.085 235.474 226.667 229.075 235.475 222.149L235.25 222.902C227.194 235.85 223.129 244.809 223.129 249.401C223.129 253.24 225.387 255.123 230.055 255.123C232.765 255.123 239.465 251.584 250.005 244.508C253.343 242.257 256.682 239.95 260.178 237.504" fill="white"/>
<defs>

</defs>
</svg>
