<svg width="14" height="96" viewBox="0 0 14 96" fill="none" xmlns="http://www.w3.org/2000/svg">
    <line x1="7.5" y1="-2.18557e-08" x2="7.5" y2="37" stroke="#171717"/>
<path d="M9.06 53.892L9.06 54.972C9.532 54.956 9.936 54.864 10.272 54.696C10.616 54.536 10.9 54.312 11.124 54.024C11.348 
53.744 11.512 53.416 11.616 53.04C11.72 52.664 11.772 52.256 11.772 51.816C11.772 51.424 11.72 51.04 11.616 50.664C11.52 
50.296 11.368 49.964 11.16 49.668C10.96 49.38 10.7 49.148 10.38 48.972C10.068 48.796 9.696 48.708 9.264 48.708C8.872 48.708
 8.544 48.784 8.28 48.936C8.024 49.096 7.812 49.304 7.644 49.56C7.484 49.824 7.352 50.12 7.248 50.448C7.152 50.776 7.064 51.108
  6.984 51.444C6.912 51.788 6.84 52.124 6.768 52.452C6.696 52.78 6.6 53.072 6.48 53.328C6.368 53.592 6.22 53.8 6.036 53.952C5.852
   54.112 5.612 54.192 5.316 54.192C5.004 54.192 4.748 54.128 4.548 54C4.348 53.872 4.188 53.704 4.068 53.496C3.956 53.288 3.876 
   53.052 3.828 52.788C3.78 52.532 3.756 52.276 3.756 52.02C3.756 51.7 3.796 51.388 3.876 51.084C3.956 50.78 4.08 50.512 4.248 
   50.28C4.416 50.056 4.628 49.872 4.884 49.728C5.148 49.592 5.46 49.524 5.82 49.524L5.82 48.444C5.3 48.444 4.848 48.536 4.464 
   48.72C4.088 48.912 3.776 49.168 3.528 49.488C3.288 49.816 3.108 50.192 2.988 50.616C2.868 51.048 2.808 51.504 2.808 51.984C2.808
    52.376 2.856 52.768 2.952 53.16C3.04 53.56 3.184 53.92 3.384 54.24C3.592 54.56 3.856 54.82 4.176 55.02C4.504 55.228 4.896 55.332
     5.352 55.332C5.776 55.332 6.128 55.252 6.408 55.092C6.688 54.94 6.92 54.732 7.104 54.468C7.288 54.212 7.432 53.92 7.536 53.592C7.648 53.264 7.744 52.928 7.824 52.584C7.904 52.248 7.976 51.916 8.04 51.588C8.112 51.26 8.2 50.964 8.304 50.7C8.408 50.444 8.54 50.236 8.7 50.076C8.868 49.924 9.084 49.848 9.348 49.848C9.628 49.848 9.86 49.9 10.044 50.004C10.236 50.116 10.388 50.26 10.5 50.436C10.612 50.62 10.692 50.828 10.74 51.06C10.788 51.292 10.812 51.528 10.812 51.768C10.812 52.36 10.672 52.844 10.392 53.22C10.12 53.604 9.676 53.828 9.06 53.892ZM8.988 62.7413L8.988 63.8812C9.444 63.8173 9.844 63.6813 10.188 63.4733C10.54 63.2653 10.832 63.0053 11.064 62.6933C11.296 62.3813 11.472 62.0252 11.592 61.6253C11.712 61.2253 11.772 60.8013 11.772 60.3533C11.772 59.6973 11.652 59.1133 11.412 58.6013C11.18 58.0972 10.86 57.6732 10.452 57.3292C10.044 56.9932 9.564 56.7372 9.012 56.5612C8.468 56.3852 7.884 56.2972 7.26 56.2972C6.636 56.2972 6.052 56.3772 5.508 56.5372C4.964 56.7052 4.492 56.9532 4.092 57.2812C3.692 57.6092 3.376 58.0212 3.144 58.5172C2.92 59.0132 2.808 59.5932 2.808 60.2572C2.808 61.3533 3.108 62.2173 3.708 62.8493C4.308 63.4813 5.148 63.8533 6.228 63.9653L6.228 62.8252C5.876 62.8013 5.548 62.7293 5.244 62.6092C4.94 62.4892 4.676 62.3212 4.452 62.1052C4.236 61.8972 4.064 61.6453 3.936 61.3492C3.816 61.0612 3.756 60.7292 3.756 60.3532C3.756 59.8412 3.852 59.4012 4.044 59.0332C4.236 58.6652 4.492 58.3612 4.812 58.1212C5.14 57.8892 5.52 57.7172 5.952 57.6052C6.392 57.4932 6.856 57.4372 7.344 57.4372C7.792 57.4372 8.224 57.4932 8.64 57.6052C9.056 57.7172 9.424 57.8892 9.744 58.1212C10.072 58.3612 10.332 58.6612 10.524 59.0212C10.716 59.3893 10.812 59.8293 10.812 60.3413C10.812 60.9413 10.66 61.4572 10.356 61.8892C10.052 62.3292 9.596 62.6133 8.988 62.7413ZM11.568 65.3774L3 65.3774L3 66.5174L6.66 66.5174L6.66 69.3014C6.66 69.5814 6.616 69.8054 6.528 69.9734C6.448 70.1414 6.336 70.2774 6.192 70.3814C6.056 70.4854 5.892 70.5614 5.7 70.6094C5.516 70.6574 5.32 70.6974 5.112 70.7294C4.904 70.7694 4.692 70.7934 4.476 70.8014C4.26 70.8094 4.056 70.8174 3.864 70.8254C3.68 70.8334 3.512 70.8494 3.36 70.8734C3.208 70.9054 3.088 70.9614 3 71.0414L3 72.3134C3.144 72.1934 3.308 72.1014 3.492 72.0374C3.684 71.9814 3.884 71.9374 4.092 71.9054C4.3 71.8734 4.512 71.8534 4.728 71.8454C4.944 71.8374 5.156 71.8254 5.364 71.8094C5.572 71.7854 5.772 71.7494 5.964 71.7014C6.156 71.6614 6.328 71.5934 6.48 71.4974C6.64 71.4094 6.776 71.2854 6.888 71.1254C7 70.9734 7.08 70.7734 7.128 70.5254L7.152 70.5254C7.296 71.0454 7.564 71.4214 7.956 71.6534C8.348 71.8934 8.804 72.0134 9.324 72.0134C10.02 72.0134 10.568 71.7814 10.968 71.3174C11.368 70.8614 11.568 70.2254 11.568 69.4094L11.568 65.3774ZM7.62 68.8934L7.62 66.5174L10.608 66.5174L10.608 69.3494C10.608 69.8854 10.472 70.2734 10.2 70.5134C9.928 70.7534 9.576 70.8734 9.144 70.8734C8.832 70.8734 8.576 70.8174 8.376 70.7054C8.184 70.6014 8.028 70.4574 7.908 70.2734C7.796 70.0974 7.72 69.8894 7.68 69.6494C7.64 69.4094 7.62 69.1574 7.62 68.8934ZM7.284 74.2522C7.716 74.2522 8.14 74.3082 8.556 74.4202C8.98 74.5322 9.36 74.7082 9.696 74.9482C10.032 75.1883 10.3 75.4962 10.5 75.8722C10.708 76.2483 10.812 76.6963 10.812 77.2163C10.812 77.7363 10.708 78.1843 10.5 78.5603C10.3 78.9363 10.032 79.2443 9.696 79.4842C9.36 79.7243 8.98 79.9003 8.556 80.0123C8.14 80.1243 7.716 80.1803 7.284 80.1803C6.852 80.1803 6.424 80.1243 6 80.0123C5.584 79.9003 5.208 79.7242 4.872 79.4842C4.536 79.2442 4.264 78.9362 4.056 78.5602C3.856 78.1842 3.756 77.7362 3.756 77.2162C3.756 76.6962 3.856 76.2482 4.056 75.8722C4.264 75.4962 4.536 75.1882 4.872 74.9482C5.208 74.7082 5.584 74.5322 6 74.4202C6.424 74.3082 6.852 74.2522 7.284 74.2522ZM7.284 73.1122C6.7 73.1122 6.136 73.1962 5.592 73.3642C5.056 73.5402 4.58 73.8002 4.164 74.1442C3.748 74.4882 3.416 74.9162 3.168 75.4282C2.928 75.9402 2.808 76.5362 2.808 77.2162C2.808 77.8962 2.928 78.4922 3.168 79.0043C3.416 79.5163 3.748 79.9443 4.164 80.2883C4.58 80.6322 5.056 80.8882 5.592 81.0563C6.136 81.2323 6.7 81.3203 7.284 81.3203C7.868 81.3203 8.428 81.2323 8.964 81.0563C9.508 80.8883 9.988 80.6323 10.404 80.2883C10.82 79.9443 11.152 79.5163 11.4 79.0043C11.648 78.4923 11.772 77.8963 11.772 77.2163C11.772 76.5363 11.648 75.9403 11.4 75.4282C11.152 74.9162 10.82 74.4882 10.404 74.1442C9.988 73.8002 9.508 73.5402 8.964 73.3642C8.428 73.1962 7.868 73.1122 7.284 73.1122ZM11.568 82.7094L3 82.7094L3 88.3854L3.96 88.3854L3.96 83.8494L11.568 83.8494L11.568 82.7094ZM11.568 89.3774L3 89.3774L3 95.0534L3.96 95.0534L3.96 90.5174L11.568 90.5174L11.568 89.3774Z" fill="#171717"/>
</svg>
