<?xml version="1.0" encoding="UTF-8" standalone="no"?>
<!DOCTYPE svg PUBLIC "-//W3C//DTD SVG 1.1//EN" "http://www.w3.org/Graphics/SVG/1.1/DTD/svg11.dtd">
<svg version="1.1" xmlns="http://www.w3.org/2000/svg" xmlns:xlink="http://www.w3.org/1999/xlink" preserveAspectRatio="xMidYMid meet" viewBox="-0.9659108318357115 -1.0185231556145715 49.91972074308458 40.436042780776205" width="40" height="40"><defs><path d="M23.79 0.01C18.18 -0.23 12.7 1.17 8.38 3.94C8.09 4.12 8.05 4.46 8.29 4.69C8.52 4.92 8.95 4.96 9.23 4.78C13.31 2.17 18.46 0.85 23.74 1.07C35.66 1.58 45.01 9.67 44.6 19.11C44.18 28.55 34.15 35.83 22.24 35.33C10.33 34.82 0.98 26.73 1.39 17.29C1.58 13.1 3.68 9.15 7.32 6.16C7.58 5.95 7.57 5.61 7.3 5.41C7.03 5.2 6.6 5.2 6.35 5.41C2.48 8.58 0.24 12.78 0.05 17.23C-0.16 22.09 2.02 26.76 6.21 30.38C10.39 34 16.07 36.13 22.2 36.39C28.33 36.65 34.17 35 38.66 31.75C43.14 28.5 45.73 24.03 45.94 19.17C46.15 14.31 43.97 9.64 39.78 6.02C35.6 2.4 29.92 0.27 23.79 0.01Z" id="b6gmd8j4By"></path><path d="M17.85 9.3C14.61 9.3 11.98 11.22 11.98 13.59C11.98 14.32 11.98 20.14 11.98 20.86C11.98 23.23 14.61 25.16 17.85 25.16C18.84 25.16 26.79 25.16 27.79 25.16C31.02 25.16 33.65 23.23 33.65 20.86C33.65 20.14 33.65 14.32 33.65 13.59C33.65 11.22 31.02 9.3 27.79 9.3C27.79 9.3 18.84 9.3 17.85 9.3ZM32.38 20.86C32.38 22.72 30.32 24.23 27.79 24.23C26.79 24.23 18.84 24.23 17.85 24.23C15.31 24.23 13.25 22.72 13.25 20.86C13.25 20.14 13.25 14.32 13.25 13.59C13.25 11.73 15.31 10.23 17.85 10.23C18.84 10.23 26.79 10.23 27.79 10.23C30.32 10.23 32.38 11.73 32.38 13.59C32.38 15.04 32.38 19.41 32.38 20.86Z" id="e2KL9lNHad"></path><path d="M16.89 17.23C16.89 19.62 19.55 21.56 22.82 21.56C26.08 21.56 28.74 19.62 28.74 17.23C28.74 14.83 26.08 12.89 22.82 12.89C19.55 12.89 16.89 14.83 16.89 17.23ZM18.16 17.23C18.16 15.35 20.25 13.82 22.82 13.82C25.38 13.82 27.47 15.35 27.47 17.23C27.47 19.1 25.38 20.63 22.82 20.63C20.25 20.63 18.16 19.1 18.16 17.23Z" id="baEDOSfcc"></path><path d="M27.13 12.63C27.13 13.34 27.92 13.91 28.88 13.91C29.85 13.91 30.64 13.34 30.64 12.63C30.64 11.92 29.85 11.35 28.88 11.35C27.92 11.35 27.13 11.92 27.13 12.63ZM28.4 12.63C28.4 12.44 28.62 12.28 28.88 12.28C29.15 12.28 29.36 12.44 29.36 12.63C29.36 12.82 29.15 12.98 28.88 12.98C28.62 12.98 28.4 12.82 28.4 12.63Z" id="a8WTMLWGo"></path></defs><g><g><use xlink:href="#b6gmd8j4By" opacity="1" fill="#fff" fill-opacity="1"></use><g><use xlink:href="#b6gmd8j4By" opacity="1" fill-opacity="0" stroke="#000000" stroke-width="1" stroke-opacity="0"></use></g></g><g><use xlink:href="#e2KL9lNHad" opacity="1" fill="#fff" fill-opacity="1"></use><g><use xlink:href="#e2KL9lNHad" opacity="1" fill-opacity="0" stroke="#000000" stroke-width="1" stroke-opacity="0"></use></g></g><g><use xlink:href="#baEDOSfcc" opacity="1" fill="#fff" fill-opacity="1"></use><g><use xlink:href="#baEDOSfcc" opacity="1" fill-opacity="0" stroke="#000000" stroke-width="1" stroke-opacity="0"></use></g></g><g><use xlink:href="#a8WTMLWGo" opacity="1" fill="#fff" fill-opacity="1"></use><g><use xlink:href="#a8WTMLWGo" opacity="1" fill-opacity="0" stroke="#000000" stroke-width="1" stroke-opacity="0"></use></g></g></g></svg>