<?xml version="1.0" encoding="UTF-8" standalone="no"?>
<!DOCTYPE svg PUBLIC "-//W3C//DTD SVG 1.1//EN" "http://www.w3.org/Graphics/SVG/1.1/DTD/svg11.dtd">
<svg version="1.1" xmlns="http://www.w3.org/2000/svg" xmlns:xlink="http://www.w3.org/1999/xlink" preserveAspectRatio="xMidYMid meet" viewBox="-0.9999999999999982 -1 51.58135490850154 40.436042780776205" width="40" height="40"><defs><path d="M23.5 0C17.68 0.07 12.1 1.76 7.8 4.76C7.51 4.96 7.49 5.3 7.75 5.52C8.01 5.73 8.45 5.75 8.73 5.55C12.79 2.72 18.04 1.13 23.51 1.07C35.86 0.93 46.03 8.51 46.19 17.97C46.34 27.42 36.42 35.23 24.07 35.37C11.72 35.51 1.55 27.93 1.4 18.47C1.33 14.27 3.26 10.21 6.85 7.04C7.1 6.81 7.07 6.47 6.77 6.28C6.48 6.09 6.04 6.12 5.79 6.34C1.99 9.71 -0.07 14.03 0 18.48C0.08 23.35 2.63 27.9 7.18 31.29C11.73 34.68 17.73 36.51 24.08 36.43C30.44 36.36 36.38 34.4 40.82 30.91C45.26 27.42 47.66 22.82 47.58 17.95C47.5 13.09 44.95 8.54 40.4 5.15C35.86 1.76 29.85 -0.07 23.5 0Z" id="a2y20rorIa"></path><path d="M32.88 11.38C32.85 9.45 32.83 8.38 32.83 8.17C32.25 8.13 30.27 8.06 27.97 8.08C23.17 8.14 19.91 9.84 19.96 12.92C19.96 13.1 19.97 14.05 20 15.74L14.7 15.8L14.76 19.39L20.06 19.33L20.21 28.36L26.7 28.29L26.56 19.26L31.64 19.2L32.39 15.6L26.5 15.67C26.47 14.19 26.46 13.36 26.46 13.2C26.44 12.16 26.94 11.45 29.55 11.42C29.99 11.41 31.1 11.4 32.88 11.38Z" id="f1yLP6cz1M"></path></defs><g><g><use xlink:href="#a2y20rorIa" opacity="1" fill="#fff" fill-opacity="1"></use><g><use xlink:href="#a2y20rorIa" opacity="1" fill-opacity="0" stroke="#000000" stroke-width="1" stroke-opacity="0"></use></g></g><g><use xlink:href="#f1yLP6cz1M" opacity="1" fill="#fff" fill-opacity="1"></use><g><use xlink:href="#f1yLP6cz1M" opacity="1" fill-opacity="0" stroke="#000000" stroke-width="1" stroke-opacity="0"></use></g></g></g></svg>