<?xml version="1.0" encoding="UTF-8" standalone="no"?>
<!DOCTYPE svg PUBLIC "-//W3C//DTD SVG 1.1//EN" "http://www.w3.org/Graphics/SVG/1.1/DTD/svg11.dtd">
<svg version="1.1" xmlns="http://www.w3.org/2000/svg" xmlns:xlink="http://www.w3.org/1999/xlink" preserveAspectRatio="xMidYMid meet" viewBox="-1 -1 55.22 54.20000000000001" width="51.22" height="50.2"><defs><path d="M25.61 50.2C11.47 50.2 0 38.96 0 25.1C0 11.24 11.47 0 25.61 0C39.76 0 51.22 11.24 51.22 25.1C51.22 38.96 39.76 50.2 25.61 50.2Z" id="a16MwTqRhJ"></path><path d="M25.61 50.2C11.47 50.2 0 38.96 0 25.1C0 11.24 11.47 0 25.61 0C39.76 0 51.22 11.24 51.22 25.1C51.22 38.96 39.76 50.2 25.61 50.2Z" id="a1Z0MF4gC"></path><path d="M20.1 22.75C19.79 22.36 19.79 21.73 20.1 21.34C20.41 20.95 20.92 20.95 21.24 21.34C21.53 21.7 22.99 23.51 25.61 26.75C28.24 23.51 29.69 21.7 29.99 21.34C30.3 20.95 30.81 20.95 31.12 21.34C31.44 21.73 31.44 22.36 31.12 22.75C30.63 23.36 26.68 28.25 26.18 28.86C26.02 29.06 25.82 29.15 25.61 29.15C25.41 29.15 25.2 29.06 25.04 28.86C24.55 28.25 20.59 23.36 20.1 22.75Z" id="fyQ24Dqun"></path><path d="M20.1 22.75C19.79 22.36 19.79 21.73 20.1 21.34C20.41 20.95 20.92 20.95 21.24 21.34C21.53 21.7 22.99 23.51 25.61 26.75C28.24 23.51 29.69 21.7 29.99 21.34C30.3 20.95 30.81 20.95 31.12 21.34C31.44 21.73 31.44 22.36 31.12 22.75C30.63 23.36 26.68 28.25 26.18 28.86C26.02 29.06 25.82 29.15 25.61 29.15C25.41 29.15 25.2 29.06 25.04 28.86C24.55 28.25 20.59 23.36 20.1 22.75Z" id="a1Gz7H5LFY"></path></defs><g><g><use xlink:href="#a16MwTqRhJ" opacity="1" fill="#ffeded" fill-opacity="0"></use><g><use xlink:href="#a16MwTqRhJ" opacity="1" fill-opacity="0" stroke="#000000" stroke-width="1" stroke-opacity="0"></use></g></g><g><use xlink:href="#a1Z0MF4gC" opacity="1" fill="#000000" fill-opacity="0"></use><g><use xlink:href="#a1Z0MF4gC" opacity="1" fill-opacity="0" stroke="#f0e8e8" stroke-width="2" stroke-opacity="0.24"></use></g></g><g><use xlink:href="#fyQ24Dqun" opacity="1" fill="#ffeded" fill-opacity="0"></use><g><use xlink:href="#fyQ24Dqun" opacity="1" fill-opacity="0" stroke="#000000" stroke-width="1" stroke-opacity="0"></use></g></g><g><use xlink:href="#a1Gz7H5LFY" opacity="1" fill="#000000" fill-opacity="0"></use><g><use xlink:href="#a1Gz7H5LFY" opacity="1" fill-opacity="0" stroke="#f0e8e8" stroke-width="1" stroke-opacity="0.24"></use></g></g></g></svg>