<?xml version="1.0" encoding="UTF-8" standalone="no"?>
<!DOCTYPE svg PUBLIC "-//W3C//DTD SVG 1.1//EN" "http://www.w3.org/Graphics/SVG/1.1/DTD/svg11.dtd">
<svg version="1.1" xmlns="http://www.w3.org/2000/svg" xmlns:xlink="http://www.w3.org/1999/xlink" preserveAspectRatio="xMidYMid meet" viewBox="-0.9999999999999991 -0.9999999999999982 52.753939188449145 44.871627246475505" width="40" height="40"><defs><path d="M25.19 0.02C19.23 -0.21 13.42 1.4 8.83 4.54C8.53 4.74 8.48 5.12 8.74 5.38C8.99 5.64 9.44 5.68 9.74 5.47C14.06 2.51 19.53 1 25.14 1.22C37.79 1.7 47.73 10.72 47.31 21.32C46.89 31.91 36.26 40.14 23.61 39.65C10.97 39.17 1.02 30.15 1.44 19.56C1.63 14.85 3.86 10.41 7.72 7.03C7.99 6.8 7.98 6.42 7.69 6.19C7.4 5.96 6.95 5.96 6.68 6.2C2.58 9.78 0.21 14.51 0.01 19.5C-0.2 24.95 2.13 30.18 6.58 34.21C11.02 38.24 17.06 40.6 23.57 40.85C30.07 41.1 36.28 39.21 41.03 35.53C45.79 31.85 48.52 26.82 48.74 21.37C48.96 15.92 46.63 10.69 42.18 6.66C37.73 2.63 31.7 0.27 25.19 0.02Z" id="beNITowOF"></path><path d="M34.86 14.78C36.03 14.27 36.92 13.45 37.36 12.44C36.27 12.92 35.08 13.25 33.81 13.42C32.81 12.55 31.36 12 29.78 11.96C26.7 11.9 24.18 13.79 24.13 16.18C24.12 16.52 24.15 16.85 24.24 17.17C19.62 16.9 15.56 15.09 12.87 12.41C12.38 13.04 12.08 13.78 12.06 14.58C12.03 16.08 12.99 17.42 14.45 18.22C13.56 18.19 12.69 17.97 11.95 17.64C11.95 17.65 11.95 17.67 11.95 17.69C11.91 19.79 13.8 21.58 16.32 22.03C15.86 22.12 15.37 22.15 14.86 22.14C14.5 22.14 14.14 22.11 13.8 22.05C14.49 23.78 16.51 25.08 18.94 25.17C17.02 26.28 14.6 26.93 12 26.87C11.55 26.86 11.11 26.84 10.67 26.79C13.11 28.07 16.01 28.84 19.16 28.9C29.4 29.11 35.13 22.63 35.25 16.92C35.26 16.72 35.25 16.54 35.25 16.36C36.36 15.77 37.31 15.03 38.08 14.17C37.07 14.49 35.99 14.7 34.86 14.78Z" id="cxCFmACr3"></path></defs><g><g><use xlink:href="#beNITowOF" opacity="1" fill="#fff" fill-opacity="1"></use><g><use xlink:href="#beNITowOF" opacity="1" fill-opacity="0" stroke="#000000" stroke-width="1" stroke-opacity="0"></use></g></g><g><use xlink:href="#cxCFmACr3" opacity="1" fill="#fff" fill-opacity="1"></use><g><use xlink:href="#cxCFmACr3" opacity="1" fill-opacity="0" stroke="#fffffff" stroke-width="1" stroke-opacity="0"></use></g></g></g></svg>